<svg xmlns="http://www.w3.org/2000/svg" id="Componente_53_4" data-name="Componente 53 &#x2013; 4" width="74" height="73.999" viewBox="0 0 74 73.999"><path id="Trazado_35797" data-name="Trazado 35797" d="M49.255,1.7l6.354,9.315a3.9,3.9,0,0,0,1.9,1.471l10.608,3.825a3.9,3.9,0,0,1,2.509,4.393L68.53,31.787a3.9,3.9,0,0,0,.3,2.383l4.8,10.205a3.9,3.9,0,0,1-1.332,4.88l-9.315,6.354a3.9,3.9,0,0,0-1.471,1.9L57.686,68.115a3.9,3.9,0,0,1-4.393,2.509l-11.08-2.094a3.9,3.9,0,0,0-2.383.3l-10.205,4.8A3.9,3.9,0,0,1,24.745,72.3l-6.354-9.315a3.9,3.9,0,0,0-1.9-1.471L5.885,57.686a3.9,3.9,0,0,1-2.509-4.393L5.47,42.214a3.9,3.9,0,0,0-.3-2.383L.371,29.626A3.9,3.9,0,0,1,1.7,24.745l9.315-6.354a3.9,3.9,0,0,0,1.471-1.9L16.314,5.885a3.9,3.9,0,0,1,4.393-2.509L31.786,5.47a3.9,3.9,0,0,0,2.383-.3L44.375.371A3.9,3.9,0,0,1,49.255,1.7" transform="translate(0 0)" fill="#ffa400"></path><path id="control-de-equipo" d="M8.007,16.04a5.1,5.1,0,1,0-5.1-5.1A5.109,5.109,0,0,0,8.007,16.04Zm0-7.291A2.187,2.187,0,1,1,5.82,10.936,2.19,2.19,0,0,1,8.007,8.749Zm4.857,12.123a1.459,1.459,0,0,1-2.024.4,5.1,5.1,0,0,0-7.906,3.676,1.46,1.46,0,0,1-1.448,1.3,1.546,1.546,0,0,1-.162-.009,1.46,1.46,0,0,1-1.289-1.61,8.022,8.022,0,0,1,12.429-5.779,1.458,1.458,0,0,1,.4,2.024Zm9.724-10.665a5.1,5.1,0,1,0-5.1-5.1A5.109,5.109,0,0,0,22.589,10.207Zm0-7.291A2.187,2.187,0,1,1,20.4,5.1,2.19,2.19,0,0,1,22.589,2.916Zm2.187,11.665A10.207,10.207,0,1,0,34.983,24.789,10.22,10.22,0,0,0,24.776,14.582Zm0,17.5a7.291,7.291,0,1,1,7.291-7.291A7.3,7.3,0,0,1,24.776,32.079Zm4.7-9.058a1.459,1.459,0,0,1-.042,2.062l-3.227,3.1a3.424,3.424,0,0,1-2.41.978,3.464,3.464,0,0,1-2.425-.983l-1.651-1.617a1.458,1.458,0,1,1,2.041-2.082l1.649,1.616a.545.545,0,0,0,.761,0l3.241-3.112a1.46,1.46,0,0,1,2.062.042Z" transform="translate(19.494 19.502)" fill="#fff"></path></svg>